<?xml version="1.0" standalone="no"?>
<!DOCTYPE svg PUBLIC "-//W3C//DTD SVG 20010904//EN"
 "http://www.w3.org/TR/2001/REC-SVG-20010904/DTD/svg10.dtd">
<svg version="1.0" xmlns="http://www.w3.org/2000/svg"
 width="512.000000pt" height="512.000000pt" viewBox="0 0 512.000000 512.000000"
 preserveAspectRatio="xMidYMid meet">

<g transform="translate(0.000000,512.000000) scale(0.100000,-0.100000)"
fill="#000000" stroke="none">
<path d="M1965 4710 c-17 -5 -42 -22 -57 -37 -16 -17 -132 -272 -296 -648
l-271 -620 -543 -5 -543 -5 -47 -23 c-75 -38 -134 -96 -170 -170 -59 -120 -67
-72 236 -1392 148 -641 278 -1185 289 -1210 32 -67 112 -143 182 -171 l60 -24
1755 0 1755 0 60 24 c70 28 150 104 182 171 11 25 141 569 289 1210 298 1299
294 1272 242 1382 -35 75 -95 138 -165 174 l-58 29 -543 5 -543 5 -271 620
c-162 373 -281 631 -296 648 -88 94 -252 24 -252 -107 0 -25 75 -207 245 -597
135 -308 245 -563 245 -565 0 -2 -400 -4 -890 -4 -489 0 -890 2 -890 4 0 2
110 257 245 565 177 405 245 572 245 599 0 99 -99 171 -195 142z m-781 -1665
c-44 -102 -24 -181 59 -223 36 -19 54 -23 87 -17 67 11 99 48 155 179 l49 116
1026 0 1026 0 49 -116 c56 -131 88 -168 155 -179 33 -6 51 -2 87 17 83 42 103
121 59 223 l-25 55 439 0 c491 0 478 2 465 -66 -3 -19 -123 -543 -265 -1166
-220 -961 -263 -1136 -281 -1150 -20 -17 -116 -18 -1709 -18 -1593 0 -1689 1
-1709 18 -18 14 -61 187 -281 1151 -143 623 -262 1148 -266 1166 -12 67 -24
65 466 65 l439 0 -25 -55z"/>
<path d="M1579 2427 c-72 -48 -70 -23 -67 -684 3 -580 3 -592 24 -619 37 -50
70 -68 124 -68 54 0 87 18 124 68 21 27 21 39 24 619 2 548 1 595 -15 627 -26
50 -76 80 -133 80 -32 0 -58 -7 -81 -23z"/>
<path d="M2479 2427 c-72 -48 -70 -23 -67 -684 3 -580 3 -592 24 -619 37 -50
70 -68 124 -68 54 0 87 18 124 68 21 27 21 39 24 619 2 548 1 595 -15 627 -26
50 -76 80 -133 80 -32 0 -58 -7 -81 -23z"/>
<path d="M3379 2427 c-72 -48 -70 -23 -67 -684 3 -580 3 -592 24 -619 37 -50
70 -68 124 -68 54 0 87 18 124 68 21 27 21 39 24 619 2 548 1 595 -15 627 -26
50 -76 80 -133 80 -32 0 -58 -7 -81 -23z"/>
</g>
</svg>
